{"extensions":{"PTC_onshape_metadata":{"documentId":"308d36ae2431fbf4b9b96a48","elementId":"1c23a328748cc03fde2f37f5"}},"extensionsUsed":["PTC_onshape_metadata"],"accessors":[{"bufferView":0,"byteOffset":0,"componentType":5126,"count":706,"type":"VEC3","max":[0.4,0.8,0.038445547],"min":[-3.4313874E-5,0.0,-0.021332545]},{"bufferView":1,"byteOffset":0,"componentType":5126,"count":706,"type":"VEC3"},{"bufferView":2,"byteOffset":0,"componentType":5123,"count":3420,"type":"SCALAR"},{"bufferView":3,"byteOffset":0,"componentType":5126,"count":40,"type":"VEC3","max":[0.31895414,0.8006626,0.037329275],"min":[0.11721813,-7.1136636E-4,0.009343672]},{"bufferView":4,"byteOffset":0,"componentType":5126,"count":40,"type":"VEC3"},{"bufferView":5,"byteOffset":0,"componentType":5123,"count":84,"type":"SCALAR"},{"bufferView":6,"byteOffset":0,"componentType":5126,"count":32,"type":"VEC3","max":[0.31895542,0.8007006,-0.0023946213],"min":[0.11722047,-7.0180994E-4,-0.022469047]},{"bufferView":7,"byteOffset":0,"componentType":5126,"count":32,"type":"VEC3"},{"bufferView":8,"byteOffset":0,"componentType":5123,"count":60,"type":"SCALAR"},{"bufferView":9,"byteOffset":0,"componentType":5126,"count":32,"type":"VEC3","max":[0.35901475,0.80036205,0.028881526],"min":[0.25716135,-3.6273504E-4,0.009358345]},{"bufferView":10,"byteOffset":0,"componentType":5126,"count":32,"type":"VEC3"},{"bufferView":11,"byteOffset":0,"componentType":5123,"count":60,"type":"SCALAR"},{"bufferView":12,"byteOffset":0,"componentType":5126,"count":32,"type":"VEC3","max":[0.35901374,0.80035365,-6.54193E-5],"min":[0.25716245,-3.535056E-4,-0.012285038]},{"bufferView":13,"byteOffset":0,"componentType":5126,"count":32,"type":"VEC3"},{"bufferView":14,"byteOffset":0,"componentType":5123,"count":60,"type":"SCALAR"},{"bufferView":15,"byteOffset":0,"componentType":5126,"count":502,"type":"VEC3","max":[0.4,0.0,0.038445547],"min":[-3.4313874E-5,-0.006,-0.021332545]},{"bufferView":16,"byteOffset":0,"componentType":5126,"count":502,"type":"VEC3"},{"bufferView":17,"byteOffset":0,"componentType":5123,"count":1500,"type":"SCALAR"},{"bufferView":18,"byteOffset":0,"componentType":5126,"count":618,"type":"VEC3","max":[0.3995588,0.04,0.03713752],"min":[0.014528788,0.034,-0.020634333]},{"bufferView":19,"byteOffset":0,"componentType":5126,"count":618,"type":"VEC3"},{"bufferView":20,"byteOffset":0,"componentType":5123,"count":1842,"type":"SCALAR"},{"bufferView":21,"byteOffset":0,"componentType":5126,"count":620,"type":"VEC3","max":[0.39911762,0.08,0.03581279],"min":[0.02909188,0.074,-0.019845514]},{"bufferView":22,"byteOffset":0,"componentType":5126,"count":620,"type":"VEC3"},{"bufferView":23,"byteOffset":0,"componentType":5123,"count":1848,"type":"SCALAR"},{"bufferView":24,"byteOffset":0,"componentType":5126,"count":618,"type":"VEC3","max":[0.39867643,0.12,0.034477018],"min":[0.04365535,0.114,-0.018905457]},{"bufferView":25,"byteOffset":0,"componentType":5126,"count":618,"type":"VEC3"},{"bufferView":26,"byteOffset":0,"componentType":5123,"count":1842,"type":"SCALAR"},{"bufferView":27,"byteOffset":0,"componentType":5126,"count":616,"type":"VEC3","max":[0.39823523,0.16,0.03314233],"min":[0.05821813,0.154,-0.017993772]},{"bufferView":28,"byteOffset":0,"componentType":5126,"count":616,"type":"VEC3"},{"bufferView":29,"byteOffset":0,"componentType":5123,"count":1836,"type":"SCALAR"},{"bufferView":30,"byteOffset":0,"componentType":5126,"count":620,"type":"VEC3","max":[0.39779404,0.2,0.031803075],"min":[0.07278131,0.194,-0.01707762]},{"bufferView":31,"byteOffset":0,"componentType":5126,"count":620,"type":"VEC3"},{"bufferView":32,"byteOffset":0,"componentType":5123,"count":1848,"type":"SCALAR"},{"bufferView":33,"byteOffset":0,"componentType":5126,"count":616,"type":"VEC3","max":[0.39735284,0.24,0.030476892],"min":[0.08734355,0.234,-0.016167898]},{"bufferView":34,"byteOffset":0,"componentType":5126,"count":616,"type":"VEC3"},{"bufferView":35,"byteOffset":0,"componentType":5123,"count":1836,"type":"SCALAR"},{"bufferView":36,"byteOffset":0,"componentType":5126,"count":610,"type":"VEC3","max":[0.39691165,0.28,0.029150216],"min":[0.10190587,0.274,-0.015243373]},{"bufferView":37,"byteOffset":0,"componentType":5126,"count":610,"type":"VEC3"},{"bufferView":38,"byteOffset":0,"componentType":5123,"count":1818,"type":"SCALAR"},{"bufferView":39,"byteOffset":0,"componentType":5126,"count":606,"type":"VEC3","max":[0.3964705,0.32,0.027849361],"min":[0.1164677,0.314,-0.0143226925]},{"bufferView":40,"byteOffset":0,"componentType":5126,"count":606,"type":"VEC3"},{"bufferView":41,"byteOffset":0,"componentType":5123,"count":1806,"type":"SCALAR"},{"bufferView":42,"byteOffset":0,"componentType":5126,"count":594,"type":"VEC3","max":[0.3960293,0.36,0.026520023],"min":[0.13102962,0.354,-0.01340389]},{"bufferView":43,"byteOffset":0,"componentType":5126,"count":594,"type":"VEC3"},{"bufferView":44,"byteOffset":0,"componentType":5123,"count":1770,"type":"SCALAR"},{"bufferView":45,"byteOffset":0,"componentType":5126,"count":606,"type":"VEC3","max":[0.3955881,0.4,0.025187844],"min":[0.1455905,0.394,-0.012444365]},{"bufferView":46,"byteOffset":0,"componentType":5126,"count":606,"type":"VEC3"},{"bufferView":47,"byteOffset":0,"componentType":5123,"count":1806,"type":"SCALAR"},{"bufferView":48,"byteOffset":0,"componentType":5126,"count":596,"type":"VEC3","max":[0.3951469,0.44,0.023859216],"min":[0.16015096,0.434,-0.011572961]},{"bufferView":49,"byteOffset":0,"componentType":5126,"count":596,"type":"VEC3"},{"bufferView":50,"byteOffset":0,"componentType":5123,"count":1776,"type":"SCALAR"},{"bufferView":51,"byteOffset":0,"componentType":5126,"count":592,"type":"VEC3","max":[0.3947057,0.48,0.022537068],"min":[0.17471051,0.474,-0.0106540155]},{"bufferView":52,"byteOffset":0,"componentType":5126,"count":592,"type":"VEC3"},{"bufferView":53,"byteOffset":0,"componentType":5123,"count":1764,"type":"SCALAR"},{"bufferView":54,"byteOffset":0,"componentType":5126,"count":584,"type":"VEC3","max":[0.39426452,0.52,0.02113419],"min":[0.18926972,0.514,-0.009720309]},{"bufferView":55,"byteOffset":0,"componentType":5126,"count":584,"type":"VEC3"},{"bufferView":56,"byteOffset":0,"componentType":5123,"count":1740,"type":"SCALAR"},{"bufferView":57,"byteOffset":0,"componentType":5126,"count":582,"type":"VEC3","max":[0.39382333,0.56,0.0198501],"min":[0.20382893,0.554,-0.008807576]},{"bufferView":58,"byteOffset":0,"componentType":5126,"count":582,"type":"VEC3"},{"bufferView":59,"byteOffset":0,"componentType":5123,"count":1734,"type":"SCALAR"},{"bufferView":60,"byteOffset":0,"componentType":5126,"count":576,"type":"VEC3","max":[0.39338213,0.6,0.018439468],"min":[0.21838814,0.594,-0.007912101]},{"bufferView":61,"byteOffset":0,"componentType":5126,"count":576,"type":"VEC3"},{"bufferView":62,"byteOffset":0,"componentType":5123,"count":1716,"type":"SCALAR"},{"bufferView":63,"byteOffset":0,"componentType":5126,"count":586,"type":"VEC3","max":[0.39294094,0.64,0.017175244],"min":[0.23294735,0.634,-0.0069895443]},{"bufferView":64,"byteOffset":0,"componentType":5126,"count":586,"type":"VEC3"},{"bufferView":65,"byteOffset":0,"componentType":5123,"count":1746,"type":"SCALAR"},{"bufferView":66,"byteOffset":0,"componentType":5126,"count":580,"type":"VEC3","max":[0.39249974,0.68,0.015871668],"min":[0.24750656,0.674,-0.006062838]},{"bufferView":67,"byteOffset":0,"componentType":5126,"count":580,"type":"VEC3"},{"bufferView":68,"byteOffset":0,"componentType":5123,"count":1728,"type":"SCALAR"},{"bufferView":69,"byteOffset":0,"componentType":5126,"count":578,"type":"VEC3","max":[0.39205858,0.72,0.014587876],"min":[0.26206577,0.714,-0.005164767]},{"bufferView":70,"byteOffset":0,"componentType":5126,"count":578,"type":"VEC3"},{"bufferView":71,"byteOffset":0,"componentType":5123,"count":1722,"type":"SCALAR"},{"bufferView":72,"byteOffset":0,"componentType":5126,"count":578,"type":"VEC3","max":[0.3916174,0.76,0.013260647],"min":[0.27662498,0.754,-0.004197823]},{"bufferView":73,"byteOffset":0,"componentType":5126,"count":578,"type":"VEC3"},{"bufferView":74,"byteOffset":0,"componentType":5123,"count":1722,"type":"SCALAR"}],"asset":{"version":"2.0"},"buffers":[{"uri":"data:application/octet-stream;base64,","byteLength":383448}],"bufferViews":[{"buffer":0,"byteOffset":0,"byteLength":8472},{"buffer":0,"byteOffset":8472,"byteLength":8472},{"buffer":0,"byteOffset":16944,"byteLength":6840},{"buffer":0,"byteOffset":23784,"byteLength":480},{"buffer":0,"byteOffset":24264,"byteLength":480},{"buffer":0,"byteOffset":24744,"byteLength":168},{"buffer":0,"byteOffset":24912,"byteLength":384},{"buffer":0,"byteOffset":25296,"byteLength":384},{"buffer":0,"byteOffset":25680,"byteLength":120},{"buffer":0,"byteOffset":25800,"byteLength":384},{"buffer":0,"byteOffset":26184,"byteLength":384},{"buffer":0,"byteOffset":26568,"byteLength":120},{"buffer":0,"byteOffset":26688,"byteLength":384},{"buffer":0,"byteOffset":27072,"byteLength":384},{"buffer":0,"byteOffset":27456,"byteLength":120},{"buffer":0,"byteOffset":27576,"byteLength":6024},{"buffer":0,"byteOffset":33600,"byteLength":6024},{"buffer":0,"byteOffset":39624,"byteLength":3000},{"buffer":0,"byteOffset":42624,"byteLength":7416},{"buffer":0,"byteOffset":50040,"byteLength":7416},{"buffer":0,"byteOffset":57456,"byteLength":3684},{"buffer":0,"byteOffset":61140,"byteLength":7440},{"buffer":0,"byteOffset":68580,"byteLength":7440},{"buffer":0,"byteOffset":76020,"byteLength":3696},{"buffer":0,"byteOffset":79716,"byteLength":7416},{"buffer":0,"byteOffset":87132,"byteLength":7416},{"buffer":0,"byteOffset":94548,"byteLength":3684},{"buffer":0,"byteOffset":98232,"byteLength":7392},{"buffer":0,"byteOffset":105624,"byteLength":7392},{"buffer":0,"byteOffset":113016,"byteLength":3672},{"buffer":0,"byteOffset":116688,"byteLength":7440},{"buffer":0,"byteOffset":124128,"byteLength":7440},{"buffer":0,"byteOffset":131568,"byteLength":3696},{"buffer":0,"byteOffset":135264,"byteLength":7392},{"buffer":0,"byteOffset":142656,"byteLength":7392},{"buffer":0,"byteOffset":150048,"byteLength":3672},{"buffer":0,"byteOffset":153720,"byteLength":7320},{"buffer":0,"byteOffset":161040,"byteLength":7320},{"buffer":0,"byteOffset":168360,"byteLength":3636},{"buffer":0,"byteOffset":171996,"byteLength":7272},{"buffer":0,"byteOffset":179268,"byteLength":7272},{"buffer":0,"byteOffset":186540,"byteLength":3612},{"buffer":0,"byteOffset":190152,"byteLength":7128},{"buffer":0,"byteOffset":197280,"byteLength":7128},{"buffer":0,"byteOffset":204408,"byteLength":3540},{"buffer":0,"byteOffset":207948,"byteLength":7272},{"buffer":0,"byteOffset":215220,"byteLength":7272},{"buffer":0,"byteOffset":222492,"byteLength":3612},{"buffer":0,"byteOffset":226104,"byteLength":7152},{"buffer":0,"byteOffset":233256,"byteLength":7152},{"buffer":0,"byteOffset":240408,"byteLength":3552},{"buffer":0,"byteOffset":243960,"byteLength":7104},{"buffer":0,"byteOffset":251064,"byteLength":7104},{"buffer":0,"byteOffset":258168,"byteLength":3528},{"buffer":0,"byteOffset":261696,"byteLength":7008},{"buffer":0,"byteOffset":268704,"byteLength":7008},{"buffer":0,"byteOffset":275712,"byteLength":3480},{"buffer":0,"byteOffset":279192,"byteLength":6984},{"buffer":0,"byteOffset":286176,"byteLength":6984},{"buffer":0,"byteOffset":293160,"byteLength":3468},{"buffer":0,"byteOffset":296628,"byteLength":6912},{"buffer":0,"byteOffset":303540,"byteLength":6912},{"buffer":0,"byteOffset":310452,"byteLength":3432},{"buffer":0,"byteOffset":313884,"byteLength":7032},{"buffer":0,"byteOffset":320916,"byteLength":7032},{"buffer":0,"byteOffset":327948,"byteLength":3492},{"buffer":0,"byteOffset":331440,"byteLength":6960},{"buffer":0,"byteOffset":338400,"byteLength":6960},{"buffer":0,"byteOffset":345360,"byteLength":3456},{"buffer":0,"byteOffset":348816,"byteLength":6936},{"buffer":0,"byteOffset":355752,"byteLength":6936},{"buffer":0,"byteOffset":362688,"byteLength":3444},{"buffer":0,"byteOffset":366132,"byteLength":6936},{"buffer":0,"byteOffset":373068,"byteLength":6936},{"buffer":0,"byteOffset":380004,"byteLength":3444}],"materials":[{"pbrMetallicRoughness":{"baseColorFactor":[0.6156863,0.8117647,0.92941177,0.25882354],"metallicFactor":0.0},"alphaMode":"BLEND","doubleSided":true},{"pbrMetallicRoughness":{"baseColorFactor":[0.64705884,0.64705884,0.64705884,1.0],"metallicFactor":0.0},"alphaMode":"OPAQUE","doubleSided":false},{"pbrMetallicRoughness":{"baseColorFactor":[0.23137255,0.38039216,0.7058824,1.0],"metallicFactor":0.0},"alphaMode":"OPAQUE","doubleSided":false},{"pbrMetallicRoughness":{"baseColorFactor":[0.76862746,0.8862745,0.9529412,1.0],"metallicFactor":0.0},"alphaMode":"OPAQUE","doubleSided":false},{"pbrMetallicRoughness":{"baseColorFactor":[0.972549,0.5294118,0.003921569,1.0],"metallicFactor":0.0},"alphaMode":"OPAQUE","doubleSided":false}],"meshes":[{"primitives":[{"attributes":{"POSITION":0,"NORMAL":1},"indices":2,"material":0,"mode":4}]},{"primitives":[{"attributes":{"POSITION":3,"NORMAL":4},"indices":5,"material":1,"mode":4}]},{"primitives":[{"attributes":{"POSITION":6,"NORMAL":7},"indices":8,"material":1,"mode":4}]},{"primitives":[{"attributes":{"POSITION":9,"NORMAL":10},"indices":11,"material":2,"mode":4}]},{"primitives":[{"attributes":{"POSITION":12,"NORMAL":13},"indices":14,"material":2,"mode":4}]},{"primitives":[{"attributes":{"POSITION":15,"NORMAL":16},"indices":17,"material":3,"mode":4}]},{"primitives":[{"attributes":{"POSITION":18,"NORMAL":19},"indices":20,"material":4,"mode":4}]},{"primitives":[{"attributes":{"POSITION":21,"NORMAL":22},"indices":23,"material":4,"mode":4}]},{"primitives":[{"attributes":{"POSITION":24,"NORMAL":25},"indices":26,"material":4,"mode":4}]},{"primitives":[{"attributes":{"POSITION":27,"NORMAL":28},"indices":29,"material":4,"mode":4}]},{"primitives":[{"attributes":{"POSITION":30,"NORMAL":31},"indices":32,"material":4,"mode":4}]},{"primitives":[{"attributes":{"POSITION":33,"NORMAL":34},"indices":35,"material":4,"mode":4}]},{"primitives":[{"attributes":{"POSITION":36,"NORMAL":37},"indices":38,"material":4,"mode":4}]},{"primitives":[{"attributes":{"POSITION":39,"NORMAL":40},"indices":41,"material":4,"mode":4}]},{"primitives":[{"attributes":{"POSITION":42,"NORMAL":43},"indices":44,"material":4,"mode":4}]},{"primitives":[{"attributes":{"POSITION":45,"NORMAL":46},"indices":47,"material":4,"mode":4}]},{"primitives":[{"attributes":{"POSITION":48,"NORMAL":49},"indices":50,"material":4,"mode":4}]},{"primitives":[{"attributes":{"POSITION":51,"NORMAL":52},"indices":53,"material":4,"mode":4}]},{"primitives":[{"attributes":{"POSITION":54,"NORMAL":55},"indices":56,"material":4,"mode":4}]},{"primitives":[{"attributes":{"POSITION":57,"NORMAL":58},"indices":59,"material":4,"mode":4}]},{"primitives":[{"attributes":{"POSITION":60,"NORMAL":61},"indices":62,"material":4,"mode":4}]},{"primitives":[{"attributes":{"POSITION":63,"NORMAL":64},"indices":65,"material":4,"mode":4}]},{"primitives":[{"attributes":{"POSITION":66,"NORMAL":67},"indices":68,"material":4,"mode":4}]},{"primitives":[{"attributes":{"POSITION":69,"NORMAL":70},"indices":71,"material":4,"mode":4}]},{"primitives":[{"attributes":{"POSITION":72,"NORMAL":73},"indices":74,"material":4,"mode":4}]}],"nodes":[{"extensions":{"PTC_onshape_metadata":{"id":["JMD"]}},"name":"skin","mesh":0},{"extensions":{"PTC_onshape_metadata":{"id":["JfD"]}},"name":"Part 1","mesh":1},{"extensions":{"PTC_onshape_metadata":{"id":["JhD"]}},"name":"Part 2","mesh":2},{"extensions":{"PTC_onshape_metadata":{"id":["JyD"]}},"name":"Part 3","mesh":3},{"extensions":{"PTC_onshape_metadata":{"id":["J0D"]}},"name":"Part 4","mesh":4},{"extensions":{"PTC_onshape_metadata":{"id":["J6D"]}},"name":"Part 5","mesh":5},{"extensions":{"PTC_onshape_metadata":{"id":["RHBD"]}},"name":"Part 6","mesh":6},{"extensions":{"PTC_onshape_metadata":{"id":["RUBD"]}},"name":"Part 7","mesh":7},{"extensions":{"PTC_onshape_metadata":{"id":["RhBD"]}},"name":"Part 8","mesh":8},{"extensions":{"PTC_onshape_metadata":{"id":["RuBD"]}},"name":"Part 9","mesh":9},{"extensions":{"PTC_onshape_metadata":{"id":["R7BD"]}},"name":"Part 10","mesh":10},{"extensions":{"PTC_onshape_metadata":{"id":["RICD"]}},"name":"Part 11","mesh":11},{"extensions":{"PTC_onshape_metadata":{"id":["RVCD"]}},"name":"Part 12","mesh":12},{"extensions":{"PTC_onshape_metadata":{"id":["RiCD"]}},"name":"Part 13","mesh":13},{"extensions":{"PTC_onshape_metadata":{"id":["RvCD"]}},"name":"Part 14","mesh":14},{"extensions":{"PTC_onshape_metadata":{"id":["R8CD"]}},"name":"Part 15","mesh":15},{"extensions":{"PTC_onshape_metadata":{"id":["RJDD"]}},"name":"Part 16","mesh":16},{"extensions":{"PTC_onshape_metadata":{"id":["RWDD"]}},"name":"Part 17","mesh":17},{"extensions":{"PTC_onshape_metadata":{"id":["RjDD"]}},"name":"Part 18","mesh":18},{"extensions":{"PTC_onshape_metadata":{"id":["RwDD"]}},"name":"Part 19","mesh":19},{"extensions":{"PTC_onshape_metadata":{"id":["R9DD"]}},"name":"Part 20","mesh":20},{"extensions":{"PTC_onshape_metadata":{"id":["RKED"]}},"name":"Part 21","mesh":21},{"extensions":{"PTC_onshape_metadata":{"id":["RXED"]}},"name":"Part 22","mesh":22},{"extensions":{"PTC_onshape_metadata":{"id":["RkED"]}},"name":"Part 23","mesh":23},{"extensions":{"PTC_onshape_metadata":{"id":["RxED"]}},"name":"Part 24","mesh":24}],"scene":0,"scenes":[{"nodes":[0,1,2,3,4,5,6,7,8,9,10,11,12,13,14,15,16,17,18,19,20,21,22,23,24]}]}